<?xml version="1.0" standalone="no"?>
<!DOCTYPE svg PUBLIC "-//W3C//DTD SVG 20010904//EN"
 "http://www.w3.org/TR/2001/REC-SVG-20010904/DTD/svg10.dtd">
<svg version="1.0" xmlns="http://www.w3.org/2000/svg"
 width="1600.000000pt" height="900.000000pt" viewBox="0 0 1600.000000 900.000000"
 preserveAspectRatio="xMidYMid meet">
 <rect width="1600" height="1600" fill="white"/>

<g transform="translate(0.000000,900.000000) scale(0.100000,-0.100000)"
fill="#000000" stroke="none">
<path d="M1 7273 c0 -951 3 -1721 6 -1713 3 8 23 66 45 129 21 62 47 133 58
157 11 23 20 50 20 58 0 25 200 621 681 2026 33 96 66 193 74 215 7 22 38 112
68 200 31 88 91 264 135 390 43 127 82 238 87 248 7 16 -25 17 -584 17 l-591
0 1 -1727z"/>
<path d="M1845 8963 c-3 -21 -8 -49 -11 -63 -3 -14 -8 -41 -11 -60 -3 -19 -14
-46 -24 -59 -11 -13 -19 -33 -19 -44 0 -27 -22 -87 -32 -87 -14 0 -9 -120 7
-150 17 -34 46 -43 180 -61 88 -11 145 -32 145 -54 0 -6 14 -26 30 -44 23 -25
36 -32 53 -27 12 3 30 6 40 6 9 0 17 5 17 11 0 6 11 20 24 30 13 10 33 39 45
65 28 58 34 66 119 147 12 12 22 27 22 35 0 7 20 32 45 56 25 25 45 49 45 54
0 12 -79 82 -94 83 -6 0 -30 0 -53 -1 -39 -1 -43 1 -43 22 0 13 9 36 19 52 18
27 18 32 5 57 -8 16 -14 37 -14 49 0 20 -5 20 -245 20 l-244 0 -6 -37z"/>
<path d="M11575 8974 c105 -12 231 -28 280 -33 86 -10 192 -23 473 -56 228
-27 475 -56 562 -65 113 -13 340 -12 417 0 105 17 234 58 328 105 168 82 274
74 -1060 74 l-1190 -1 190 -24z"/>
<path d="M15245 8987 c-47 -19 -90 -44 -105 -62 -12 -14 -10 -20 13 -43 l27
-26 72 23 c101 33 193 38 266 16 70 -22 108 -41 136 -67 47 -45 61 -50 98 -35
76 32 73 76 -9 127 -27 16 -53 34 -60 39 -6 6 -31 17 -55 26 -54 18 -337 20
-383 2z"/>
<path d="M14343 8940 c-15 -6 -24 -23 -31 -57 -21 -101 -25 -143 -12 -158 17
-20 94 -20 114 0 20 20 36 75 43 147 6 55 5 58 -21 68 -32 12 -63 12 -93 0z"/>
<path d="M2593 8900 c-3 -11 -13 -20 -22 -21 -13 0 -14 -1 -1 -6 8 -3 23 -12
32 -21 10 -8 24 -12 32 -9 19 8 28 -29 10 -44 -8 -6 -14 -27 -14 -46 0 -19 -7
-47 -15 -63 -8 -16 -20 -53 -25 -82 -19 -94 -20 -99 -29 -94 -10 6 -21 -26
-21 -60 0 -12 -6 -27 -14 -33 -20 -16 -56 -92 -50 -103 10 -15 40 -8 62 15 25
27 62 109 86 192 9 33 25 83 35 110 10 28 23 66 30 85 26 71 33 110 26 137 -4
16 -10 22 -12 16 -3 -7 -9 -13 -14 -13 -5 0 -9 6 -9 13 0 12 -53 47 -72 47 -5
0 -12 -9 -15 -20z"/>
<path d="M14120 8887 c-26 -13 -37 -41 -39 -99 -1 -40 -4 -38 75 -53 32 -7 62
26 74 81 10 45 10 50 -11 66 -25 21 -64 23 -99 5z"/>
<path d="M15362 8860 c-57 -12 -122 -50 -122 -70 0 -9 9 -25 20 -35 19 -17 26
-17 85 -6 79 16 125 9 188 -30 52 -32 68 -31 111 2 33 26 32 31 -2 69 -51 55
-187 89 -280 70z"/>
<path d="M15368 8694 c-36 -19 -35 -31 8 -77 l35 -38 42 19 c80 35 97 71 47
97 -37 19 -97 19 -132 -1z"/>
<path d="M6779 8330 c-24 -16 -52 -40 -62 -52 -9 -13 -29 -37 -42 -55 -30 -37
-55 -124 -55 -187 0 -63 24 -75 177 -93 136 -16 159 -11 194 37 26 35 61 178
48 201 -5 10 -9 27 -9 38 0 38 -37 106 -68 124 -50 28 -130 23 -183 -13z"/>
<path d="M8418 8219 c-21 -12 -24 -49 -6 -67 18 -18 63 -14 81 6 23 26 21 35
-12 55 -33 20 -40 20 -63 6z"/>
<path d="M7379 8208 c-35 -9 -59 -39 -59 -73 0 -8 -11 -54 -25 -101 -31 -107
-33 -159 -5 -174 21 -11 47 -3 69 23 6 8 23 55 37 103 28 94 50 128 91 139 30
7 73 -18 73 -43 0 -9 -9 -58 -21 -108 -25 -104 -21 -141 16 -150 19 -5 31 -1
46 17 19 22 27 45 67 194 l19 70 15 -35 c8 -19 22 -84 32 -144 19 -126 15
-141 -53 -172 -47 -22 -56 -37 -35 -59 21 -21 77 -19 122 4 38 19 138 145 257
324 27 39 70 51 81 22 4 -8 -4 -56 -16 -105 -33 -132 -19 -175 63 -195 36 -9
77 2 77 21 0 9 -9 27 -20 41 -24 31 -25 62 -4 153 14 65 17 68 49 74 49 10 63
31 37 59 -11 12 -24 36 -28 52 -10 44 -22 55 -63 55 -29 0 -41 -7 -64 -35 -27
-34 -30 -35 -76 -29 -64 8 -80 -2 -134 -83 -76 -116 -90 -116 -101 1 -9 87
-19 106 -55 106 -53 0 -91 -12 -92 -29 0 -12 -2 -11 -9 4 -11 27 -63 64 -97
70 -69 10 -161 12 -194 3z"/>
<path d="M8393 8079 c-24 -9 -22 -2 -63 -173 -17 -71 -29 -139 -26 -151 11
-45 67 -43 90 3 7 15 28 86 46 159 26 104 30 135 21 147 -16 19 -42 25 -68 15z"/>
<path d="M8536 8052 c-15 -24 -74 -291 -69 -314 6 -29 36 -42 64 -27 17 8 36
61 68 184 18 68 37 87 83 83 60 -4 66 -20 43 -125 -32 -148 -32 -161 0 -173
41 -15 59 6 85 103 33 123 48 154 83 168 25 10 34 10 56 -2 32 -19 33 -46 3
-179 l-22 -95 21 -17 c27 -23 34 -23 57 2 20 21 46 107 65 212 9 48 8 64 -6
92 -26 55 -65 69 -166 62 -76 -6 -89 -4 -116 14 -25 17 -46 20 -137 20 -59 0
-109 -4 -112 -8z"/>
<path d="M9275 7980 c-77 -11 -132 -60 -161 -142 -37 -107 1 -187 109 -227 62
-24 160 -6 199 36 20 22 21 25 6 40 -14 14 -22 14 -60 4 -81 -24 -92 -23 -128
1 -23 16 -36 33 -38 51 -4 32 4 33 159 15 95 -10 103 -10 115 7 18 25 18 99
-1 135 -31 59 -114 92 -200 80z m100 -90 c14 -12 21 -51 10 -62 -3 -2 -35 0
-72 6 -75 13 -91 32 -51 61 26 18 88 15 113 -5z"/>
<path d="M9665 7931 c-82 -14 -125 -65 -109 -128 9 -38 25 -49 145 -103 46
-21 59 -45 34 -65 -29 -23 -97 -14 -135 19 -56 46 -121 24 -86 -29 77 -118
326 -87 326 39 0 47 -40 90 -98 106 -23 6 -54 21 -69 34 -24 20 -25 26 -14 40
22 26 93 21 121 -9 26 -27 77 -34 86 -12 23 61 -97 126 -201 108z"/>
<path d="M10193 7838 c-49 -27 -78 -62 -98 -119 -22 -60 -19 -106 10 -155 42
-72 137 -101 237 -74 38 11 92 64 85 84 -7 20 -59 19 -88 -3 -60 -45 -147 -16
-165 54 -9 35 10 97 40 132 21 24 32 28 80 28 51 0 58 -3 89 -37 41 -45 74
-50 83 -12 8 33 -19 71 -72 101 -54 31 -144 31 -201 1z"/>
<path d="M10604 7791 c-72 -33 -115 -109 -115 -204 0 -70 22 -106 84 -136 115
-56 252 -3 297 114 17 43 13 132 -7 166 -41 68 -173 99 -259 60z m166 -77 c10
-11 21 -40 24 -65 6 -41 3 -51 -26 -95 -32 -47 -35 -49 -87 -52 -44 -3 -58 1
-77 19 -44 41 -27 164 27 203 31 23 113 17 139 -10z"/>
<path d="M10986 7752 c-7 -12 -76 -316 -76 -336 0 -12 10 -16 39 -16 38 0 38
0 54 58 9 31 21 84 27 116 9 42 21 68 40 88 31 30 45 33 84 18 47 -17 50 -40
22 -171 -15 -66 -24 -125 -21 -130 4 -5 21 -9 40 -9 39 0 45 13 70 145 17 87
38 125 78 139 34 12 85 -9 93 -40 3 -12 -6 -76 -20 -141 -13 -65 -22 -121 -18
-125 16 -16 59 -19 70 -5 14 17 52 178 59 253 5 46 2 55 -23 83 -25 28 -38 33
-89 38 -43 4 -71 1 -99 -11 -38 -16 -39 -16 -63 9 -30 30 -77 40 -144 31 -31
-4 -49 -3 -49 4 0 12 -67 14 -74 2z"/>
<path d="M9906 7604 c-24 -24 -20 -59 10 -74 22 -12 29 -12 52 1 15 8 29 25
30 39 7 43 -59 68 -92 34z"/>
<path d="M15965 7308 c-54 -38 -85 -71 -85 -90 0 -22 12 -23 51 -2 41 21 57
13 62 -33 2 -21 4 4 5 55 1 50 1 92 0 92 -2 0 -16 -10 -33 -22z"/>
<path d="M15738 7123 c-28 -33 -45 -87 -58 -188 -22 -173 -22 -178 0 -204 22
-25 50 -33 195 -56 128 -20 125 -21 125 20 0 33 -2 35 -32 35 -62 0 -223 31
-237 45 -13 13 -13 24 2 87 9 40 20 99 23 130 5 44 11 59 26 64 24 7 52 50 44
69 -8 21 -69 19 -88 -2z"/>
<path d="M15982 7031 c-10 -67 -11 -96 -3 -104 19 -19 22 -2 19 99 l-3 99 -13
-94z"/>
<path d="M1484 7071 c-25 -11 -48 -69 -38 -94 6 -17 51 -33 119 -41 47 -5 306
-40 455 -61 152 -21 205 -20 231 6 14 14 19 30 17 52 -3 29 -8 33 -58 49 -52
15 -515 82 -645 93 -33 3 -70 1 -81 -4z"/>
<path d="M3291 6880 c-166 -44 -313 -179 -356 -328 -12 -39 -16 -79 -13 -129
22 -335 470 -444 744 -181 73 69 106 126 130 220 40 154 -31 310 -173 385
-105 56 -206 65 -332 33z m264 -112 c96 -50 145 -126 145 -227 0 -35 -5 -82
-12 -105 -24 -83 -117 -177 -217 -219 -59 -25 -75 -27 -161 -24 -106 4 -149
20 -208 78 -147 144 -80 393 131 489 80 36 96 39 192 36 63 -2 91 -8 130 -28z"/>
<path d="M3342 6728 c-52 -18 -102 -71 -102 -109 0 -31 1 -31 35 -26 19 3 48
15 64 26 16 12 41 21 55 21 31 0 70 -35 62 -57 -3 -8 -6 -19 -6 -23 0 -14 -42
-50 -79 -67 -36 -17 -71 -65 -71 -97 0 -11 -9 -39 -21 -63 -12 -24 -18 -50
-15 -58 7 -20 50 -19 70 1 20 19 20 24 1 51 -15 21 -14 24 22 48 88 59 167
122 187 148 42 57 23 139 -45 189 -30 23 -113 31 -157 16z"/>
<path d="M1386 6795 c-31 -31 -38 -65 -21 -91 8 -13 19 -24 24 -24 11 0 493
-66 581 -79 66 -11 112 -14 162 -12 31 1 63 49 53 81 -12 39 -20 41 -235 70
-41 6 -118 17 -170 25 -334 50 -371 52 -394 30z"/>
<path d="M6256 6618 c-8 -13 -20 -50 -27 -82 -13 -59 -13 -59 14 -80 l27 -22
-15 -250 c-8 -137 -17 -276 -20 -309 -2 -33 -7 -115 -11 -181 l-6 -121 49 -7
c26 -4 64 -9 83 -12 19 -3 44 -6 55 -9 11 -2 45 -7 75 -10 l55 -6 32 63 c18
35 44 83 59 108 15 25 55 99 91 164 35 65 70 128 78 139 12 18 14 16 20 -24 3
-24 4 -142 1 -261 -5 -223 -4 -229 34 -235 8 -1 53 -7 100 -13 47 -7 106 -15
132 -20 41 -6 48 -5 53 11 4 11 11 19 16 19 5 0 9 5 9 10 0 20 140 313 152
318 4 2 8 8 8 13 0 10 96 216 170 364 42 83 48 90 79 95 30 4 36 10 46 45 27
88 33 125 22 132 -19 12 -227 40 -285 39 l-57 -1 -13 -40 c-7 -22 -16 -61 -19
-87 -5 -43 -4 -48 14 -48 31 0 59 -25 47 -41 -6 -8 -32 -61 -59 -119 -104
-227 -146 -313 -151 -307 -7 7 -6 155 2 454 l7 212 -24 10 c-40 17 -169 32
-186 23 -18 -10 -25 -23 -205 -360 -121 -224 -143 -261 -153 -250 -4 4 30 361
40 424 5 28 10 32 44 38 41 6 43 9 73 112 20 67 17 69 -127 89 -22 3 -87 12
-144 20 -145 21 -168 20 -185 -7z"/>
<path d="M1298 6527 c-29 -23 -40 -94 -16 -108 17 -11 697 -109 751 -109 46 0
84 68 59 107 -10 16 -62 27 -282 57 -102 15 -241 35 -310 46 -145 23 -179 24
-202 7z"/>
<path d="M9345 6218 c-8 -25 -35 -136 -35 -146 0 -6 16 -14 35 -18 19 -3 35
-10 35 -14 0 -11 -40 -177 -46 -195 -4 -11 -13 -6 -32 16 -22 27 -53 46 -87
54 -145 35 -255 -22 -323 -166 -62 -132 -94 -340 -68 -440 25 -94 91 -141 201
-142 57 -1 78 3 109 21 46 27 46 27 46 -2 0 -15 7 -27 18 -30 30 -9 313 -48
318 -44 2 3 12 38 23 79 18 74 15 99 -15 99 -22 0 -23 14 -9 76 8 32 30 124
49 204 19 80 37 156 39 170 5 26 42 182 82 348 12 51 19 94 16 96 -3 2 -46 9
-96 15 -49 6 -121 16 -160 21 -92 12 -95 12 -100 -2z m-77 -514 c20 -14 23
-24 21 -71 -5 -104 -51 -249 -89 -280 -18 -15 -55 -16 -80 -3 -32 17 -32 55 0
186 42 168 82 214 148 168z"/>
<path d="M9820 6120 c-6 -23 -12 -61 -13 -83 -2 -36 1 -41 23 -47 30 -7 36
-30 21 -79 -9 -33 -39 -153 -46 -190 -9 -45 -86 -381 -95 -413 -6 -21 -16 -39
-23 -39 -7 -1 -16 -2 -22 -4 -5 -1 -15 -3 -21 -3 -17 -3 -49 -153 -34 -162 10
-6 90 -19 220 -36 25 -3 69 -9 99 -15 30 -5 58 -9 63 -9 15 0 39 62 44 116 6
51 4 54 -20 64 -30 11 -31 19 -11 97 9 32 18 72 21 88 3 17 15 75 28 130 13
55 41 172 61 260 20 88 45 194 55 235 10 41 14 79 10 83 -8 9 -164 33 -277 43
l-72 7 -11 -43z"/>
<path d="M7713 6096 c-81 -20 -171 -88 -204 -155 -7 -15 -18 -33 -24 -41 -13
-18 -39 -104 -55 -182 -47 -236 81 -377 345 -377 113 -1 183 28 254 104 103
110 142 248 129 455 -1 20 -44 88 -77 123 -66 71 -238 105 -368 73z m159 -193
c20 -18 23 -56 7 -123 -6 -25 -12 -52 -14 -60 -24 -105 -40 -148 -63 -167 -35
-32 -64 -33 -94 -6 -42 37 18 313 78 358 26 19 63 19 86 -2z"/>
<path d="M8317 6017 c-16 -12 -52 -145 -42 -155 3 -3 15 -7 27 -9 12 -2 24 -6
27 -9 3 -3 -4 -44 -16 -92 -12 -48 -32 -129 -44 -180 -18 -77 -25 -93 -43 -98
-12 -3 -29 -4 -36 -2 -10 2 -21 -22 -36 -79 -12 -46 -19 -85 -16 -87 4 -2 75
-14 157 -25 83 -12 173 -25 201 -30 27 -4 55 -6 61 -4 16 6 49 151 37 163 -5
5 -21 10 -36 12 -15 2 -30 6 -32 9 -3 3 7 55 22 115 42 170 84 209 218 203 30
-2 56 0 59 2 8 9 55 201 50 208 -8 13 -78 11 -129 -3 -29 -9 -69 -27 -90 -41
l-37 -25 6 45 c8 51 8 51 -70 59 -27 3 -61 8 -75 10 -14 2 -49 7 -79 10 -29 4
-57 8 -61 11 -4 2 -14 -1 -23 -8z"/>
<path d="M10404 5724 c-152 -45 -230 -143 -275 -345 -34 -155 -14 -258 66
-327 46 -41 78 -57 153 -77 91 -23 195 -21 265 5 87 33 198 153 169 182 -12
12 -44 17 -134 24 -73 6 -80 4 -109 -20 -41 -35 -73 -41 -112 -22 -30 13 -34
20 -35 57 -1 22 -4 45 -7 49 -10 16 25 39 53 35 15 -2 65 -9 112 -15 47 -6 96
-12 110 -14 14 -2 55 -7 92 -11 67 -6 75 -3 78 37 1 4 6 27 13 50 11 38 13
135 4 178 -11 55 -43 111 -80 141 -47 39 -97 72 -97 65 0 -3 -23 2 -50 10 -58
17 -155 16 -216 -2z m179 -183 c14 -14 11 -104 -3 -131 -10 -18 -17 -20 -53
-14 -23 4 -49 7 -57 7 -8 0 -21 7 -28 16 -8 9 -11 10 -7 4 3 -7 1 -13 -5 -13
-10 0 -8 19 7 73 2 9 9 17 14 17 5 0 9 6 9 14 0 26 42 48 79 42 19 -3 39 -10
44 -15z"/>
<path d="M13802 5423 c-27 -5 -38 -24 -45 -80 -5 -40 -43 -129 -59 -139 -5 -3
-41 0 -80 6 -67 10 -141 6 -166 -9 -6 -3 -18 -47 -27 -96 -9 -50 -25 -135 -36
-190 -25 -138 -25 -150 10 -174 28 -20 151 -44 371 -71 41 -5 120 -17 175 -25
55 -8 138 -20 185 -25 47 -6 91 -13 99 -15 29 -11 79 83 85 161 2 33 12 89 22
126 27 100 18 118 -71 138 -99 23 -164 50 -170 71 -6 19 18 156 36 201 8 19 8
36 0 61 l-12 34 -117 16 c-115 17 -155 19 -200 10z m216 -118 c16 -36 16 -43
-18 -222 -46 -246 -49 -259 -81 -303 -33 -46 -49 -48 -116 -13 -55 29 -58 47
-33 173 12 62 28 130 36 152 7 21 16 69 19 106 3 37 8 82 11 100 l5 32 83 0
c79 0 83 -1 94 -25z m-348 -195 c29 -16 33 -68 14 -164 -18 -93 -59 -167 -92
-165 -29 1 -79 23 -105 45 -24 21 -24 21 -10 95 8 41 18 96 23 124 5 27 17 56
27 62 20 15 117 17 143 3z m566 -192 c11 -22 14 -44 10 -76 -7 -51 -62 -142
-85 -142 -26 1 -95 35 -115 59 -18 20 -19 27 -8 97 7 42 15 80 18 85 3 5 41 9
84 9 79 0 80 0 96 -32z"/>
<path d="M1433 5208 c-7 -7 -23 -52 -37 -98 -13 -47 -41 -134 -61 -195 -19
-60 -43 -135 -52 -165 -9 -30 -27 -86 -39 -125 -13 -38 -46 -144 -74 -235 -28
-91 -64 -208 -81 -260 -16 -52 -33 -108 -38 -125 -5 -16 -30 -97 -56 -180 -25
-82 -62 -202 -82 -265 -36 -120 -81 -265 -157 -508 -40 -128 -42 -143 -28
-151 16 -8 51 -14 147 -26 21 -3 91 -14 155 -25 187 -31 194 -32 228 -33 17
-1 32 -4 32 -8 0 -3 17 -6 38 -7 20 -1 48 -4 62 -7 24 -5 41 -9 108 -19 54 -9
105 -18 126 -22 11 -2 44 -7 71 -10 28 -3 59 -7 70 -9 80 -14 143 -27 159 -32
14 -4 16 -2 10 8 -6 11 -5 12 7 2 13 -10 53 -20 124 -29 86 -11 112 -14 131
-18 23 -5 85 -16 119 -21 11 -2 40 -6 65 -10 96 -13 176 -25 200 -30 14 -3 41
-8 60 -10 19 -3 51 -7 70 -10 19 -3 52 -8 74 -10 21 -3 42 -8 47 -10 4 -3 28
-8 51 -10 54 -5 153 -21 153 -25 0 -1 26 -3 58 -5 53 -3 58 -1 63 21 3 13 11
21 16 18 6 -4 5 4 -2 16 -8 15 -8 20 -1 16 7 -5 11 2 11 18 0 14 4 26 9 26 7
0 18 34 23 78 1 6 5 12 10 12 5 0 3 10 -3 23 -11 20 -11 21 4 8 20 -16 22 -8
6 21 -7 12 -7 18 -1 14 6 -3 15 8 21 24 6 18 6 28 1 25 -6 -3 -7 1 -4 9 3 9
10 16 16 16 5 0 7 4 4 9 -4 5 3 31 14 57 11 26 19 52 17 58 -2 6 3 17 10 25 8
7 12 20 9 27 -3 8 -2 14 3 14 4 0 7 15 6 34 0 20 3 32 9 29 5 -4 7 1 3 10 -3
10 -2 17 2 17 5 0 12 7 15 16 3 8 2 12 -3 9 -5 -3 -13 0 -17 6 -4 8 -3 9 4 5
7 -4 12 -2 12 4 0 6 4 8 10 5 6 -4 6 3 0 21 -9 22 -8 25 3 16 10 -9 12 -4 12
23 -1 19 2 32 6 29 11 -6 22 33 13 47 -4 7 -3 9 3 6 6 -4 13 2 16 13 3 11 1
18 -4 15 -5 -4 0 15 11 40 21 48 26 70 11 47 -7 -11 -9 -10 -14 3 -4 9 -3 13
3 10 6 -3 10 -1 10 5 0 6 4 8 10 5 6 -3 7 1 4 9 -3 9 -1 16 4 16 6 0 9 16 7
37 -2 20 0 31 4 24 5 -7 12 2 18 24 6 19 7 33 2 29 -5 -3 -6 2 -3 10 3 9 10
16 15 16 5 0 2 12 -7 28 -11 18 -11 21 -1 10 14 -18 33 -25 23 -10 -3 5 3 31
13 58 9 27 17 63 17 81 -1 17 1 30 3 27 8 -7 32 51 33 78 1 15 7 29 14 32 7 3
11 18 9 40 -2 20 0 34 5 31 9 -5 25 42 21 63 -1 8 2 19 7 25 9 12 30 78 56
177 8 30 33 116 55 190 64 218 111 393 106 398 -2 3 -46 11 -97 18 -307 46
-800 117 -898 130 -63 7 -121 16 -130 19 -8 2 -64 11 -125 19 -60 8 -236 34
-390 56 -154 23 -309 46 -345 50 -36 5 -126 18 -200 30 -74 11 -153 23 -175
26 -29 4 -44 2 -52 -8z m782 -838 c77 -11 165 -25 195 -30 30 -5 120 -19 200
-31 80 -12 160 -24 178 -26 38 -6 37 -4 13 -118 -18 -80 -18 -80 -176 -55 -75
12 -140 18 -144 14 -4 -5 -18 -45 -31 -89 -49 -169 -61 -207 -81 -272 -12 -38
-23 -79 -25 -93 -3 -14 -14 -50 -25 -80 -12 -30 -23 -65 -25 -76 -2 -12 -13
-51 -24 -87 l-20 -66 -48 4 c-88 7 -176 24 -189 38 -12 12 -9 28 21 108 20 52
36 100 36 107 0 15 128 429 140 452 4 8 11 34 14 56 l7 41 -93 17 c-94 16
-144 24 -164 25 -17 1 -25 28 -15 54 5 12 15 42 22 66 17 56 34 73 68 67 14
-3 89 -14 166 -26z"/>
<path d="M15569 5196 c-20 -7 -55 -32 -78 -56 l-41 -43 -81 6 -82 7 -34 -38
c-44 -47 -50 -74 -28 -122 22 -49 16 -121 -14 -159 -11 -14 -28 -41 -37 -59
-15 -30 -15 -36 0 -77 16 -41 21 -44 67 -54 85 -19 115 -36 159 -96 33 -44 56
-63 103 -86 70 -33 83 -31 142 16 62 50 78 55 142 49 66 -7 107 8 173 64 l35
30 3 209 3 209 -29 27 c-17 16 -46 30 -74 35 -48 9 -79 34 -118 92 -13 19 -30
41 -38 48 -20 16 -126 15 -173 -2z m109 -277 c84 -41 107 -125 50 -182 -59
-58 -118 -75 -178 -51 -79 32 -113 124 -69 189 45 66 118 82 197 44z"/>
<path d="M4079 4813 c-6 -16 -31 -98 -55 -183 -25 -85 -49 -168 -54 -185 -5
-16 -17 -57 -26 -90 -9 -33 -24 -87 -34 -120 -10 -33 -30 -105 -45 -160 -15
-55 -47 -170 -71 -255 -24 -85 -51 -182 -60 -215 -48 -174 -77 -276 -110 -390
-9 -33 -18 -67 -19 -75 -1 -8 -9 -37 -17 -65 -24 -78 -52 -169 -54 -177 -1 -5
-2 -9 -3 -10 -2 -2 -4 -14 -7 -28 -2 -14 -11 -41 -19 -61 -7 -20 -12 -39 -10
-41 3 -2 -4 -28 -15 -58 -11 -30 -18 -55 -16 -58 3 -2 -5 -29 -16 -60 -25 -72
-31 -109 -20 -116 5 -3 22 -7 38 -10 40 -7 162 -27 199 -32 17 -3 57 -10 90
-16 33 -5 74 -12 90 -15 17 -2 257 -41 535 -85 278 -44 534 -84 570 -89 36 -5
103 -16 150 -24 47 -8 189 -31 315 -50 127 -20 284 -45 350 -56 66 -10 131
-19 145 -19 35 0 67 24 73 57 4 16 17 69 31 118 13 50 43 160 65 245 22 85 56
216 76 290 20 74 59 221 86 325 83 315 108 412 156 590 77 289 102 385 138
530 20 77 43 162 52 188 8 27 11 53 7 57 -5 5 -31 11 -59 14 -27 4 -61 8 -75
11 -14 2 -43 7 -65 10 -23 3 -52 7 -65 10 -13 3 -42 7 -65 10 -22 3 -51 8 -65
10 -14 3 -43 7 -65 10 -87 11 -125 16 -216 31 -40 6 -138 20 -204 29 -22 3
-51 7 -65 10 -13 2 -42 7 -65 10 -22 3 -51 8 -65 10 -14 2 -47 7 -75 10 -27 3
-75 10 -105 15 -30 5 -72 11 -92 14 -21 4 -53 8 -70 11 -33 5 -79 11 -153 21
-22 2 -65 9 -95 14 -30 5 -75 12 -100 15 -25 3 -70 10 -100 15 -30 5 -75 12
-100 15 -50 6 -350 50 -446 65 -87 14 -93 13 -105 -17z m1036 -888 c28 -3 66
-11 86 -16 47 -12 47 -7 -17 -208 -8 -24 -11 -47 -8 -52 3 -5 0 -9 -6 -9 -6 0
-9 -4 -6 -9 3 -5 -1 -27 -9 -50 -8 -23 -12 -41 -10 -41 3 0 0 -12 -6 -27 -5
-14 -19 -61 -30 -102 -41 -148 -51 -186 -54 -201 -9 -41 -57 -213 -65 -235 -5
-13 -20 -27 -34 -31 -31 -7 -165 13 -184 28 -16 13 -12 53 13 134 13 44 52
186 137 499 17 61 36 131 44 156 8 25 17 56 19 69 5 24 25 90 31 101 4 6 9 6
99 -6z"/>
<path d="M6835 4432 c-6 -4 -11 -13 -12 -19 -2 -7 -14 -54 -27 -105 -14 -51
-95 -372 -181 -713 -86 -341 -206 -816 -267 -1055 -61 -239 -113 -449 -115
-467 -8 -54 4 -58 352 -113 72 -11 144 -23 160 -26 44 -8 345 -54 380 -58 31
-4 451 -70 710 -111 159 -26 232 -37 385 -60 52 -8 136 -21 185 -29 50 -9 117
-20 150 -25 33 -6 90 -15 127 -22 119 -20 168 5 182 92 4 24 29 133 57 243 56
228 97 402 109 461 4 22 24 110 45 195 20 85 46 193 57 240 10 47 23 101 27
120 5 19 18 76 29 125 12 50 33 140 48 200 14 61 39 164 54 230 15 66 45 192
65 280 59 252 60 248 -28 258 -28 3 -189 26 -357 51 -168 25 -354 52 -415 61
-60 9 -121 18 -135 20 -24 4 -200 30 -265 39 -16 3 -93 14 -170 26 -77 11
-156 23 -175 26 -19 2 -62 9 -95 14 -33 6 -152 23 -265 40 -175 25 -474 69
-575 85 -17 2 -35 1 -40 -3z m713 -869 c104 -15 114 -19 127 -42 11 -23 34
-182 65 -471 6 -52 13 -104 16 -117 10 -37 41 -28 70 20 15 23 41 65 59 92 18
28 63 100 100 160 148 241 150 244 180 255 33 12 272 -23 292 -43 8 -8 15 -30
15 -48 0 -31 -46 -240 -122 -554 -16 -66 -41 -169 -55 -230 -32 -133 -49 -155
-126 -155 -53 0 -93 16 -122 48 -18 20 -18 24 13 154 106 447 101 465 -61 212
-182 -283 -208 -322 -218 -328 -6 -4 -32 -9 -59 -13 -37 -4 -57 -1 -90 16 -49
25 -57 39 -66 111 -3 30 -15 136 -26 235 -12 99 -25 197 -31 218 -10 39 -34
50 -43 20 -2 -10 -30 -123 -62 -251 -32 -134 -64 -243 -75 -255 -15 -19 -26
-22 -90 -21 -68 2 -75 4 -100 32 -16 18 -26 38 -23 49 27 110 163 650 190 758
20 77 41 146 47 153 13 16 61 15 195 -5z"/>
<path d="M9673 3988 c-13 -18 -48 -161 -83 -343 -6 -33 -22 -107 -35 -165 -13
-58 -36 -159 -50 -225 -14 -66 -37 -169 -50 -230 -13 -60 -29 -135 -34 -165
-6 -30 -28 -136 -51 -235 -22 -99 -49 -223 -60 -275 -12 -52 -27 -117 -35
-145 -8 -27 -21 -88 -30 -135 -40 -210 -45 -237 -55 -264 -5 -16 -10 -51 -10
-77 0 -26 -4 -50 -9 -53 -21 -13 -18 -48 5 -76 28 -32 39 -35 274 -70 80 -12
170 -26 200 -31 30 -5 114 -18 185 -28 72 -11 204 -31 295 -46 254 -41 524
-83 640 -100 58 -8 143 -22 190 -30 47 -9 137 -22 200 -31 63 -8 122 -16 130
-19 8 -2 47 -9 85 -15 39 -5 113 -17 165 -26 185 -30 186 -30 223 7 31 33 35
44 80 269 49 239 81 393 97 465 5 22 16 81 25 130 8 50 27 137 40 195 13 58
31 143 40 190 8 47 22 117 30 155 8 39 19 95 25 125 6 30 22 105 35 165 36
163 116 542 127 607 14 79 6 106 -35 112 -17 2 -63 10 -102 16 -76 13 -273 43
-430 66 -55 8 -127 18 -160 24 -33 5 -98 13 -145 19 -47 6 -103 15 -125 21
-22 5 -62 12 -90 15 -73 8 -144 19 -675 100 -129 20 -293 45 -365 55 -71 11
-188 29 -259 40 -149 23 -190 25 -203 8z m1127 -888 c118 -17 249 -36 290 -41
83 -11 114 -28 141 -79 30 -56 25 -89 -22 -138 -23 -23 -52 -45 -64 -48 -13
-3 -60 1 -106 9 -178 33 -303 48 -334 43 -42 -8 -67 -37 -63 -72 6 -49 40 -63
230 -92 203 -31 219 -40 237 -124 13 -56 7 -73 -40 -112 -44 -37 -71 -41 -158
-23 -232 48 -327 44 -351 -14 -31 -74 31 -120 190 -139 93 -11 240 -36 271
-45 18 -6 48 -63 60 -114 10 -44 -7 -78 -61 -121 -46 -36 -43 -36 -230 -5 -47
8 -161 26 -255 40 -224 34 -269 47 -311 93 -19 20 -34 46 -34 57 0 23 37 201
70 340 12 50 30 128 40 175 99 464 95 455 214 447 39 -2 168 -19 286 -37z"/>
<path d="M12605 3561 c-12 -5 -26 -15 -33 -24 -12 -14 -48 -178 -57 -262 -5
-42 -16 -103 -21 -120 -9 -26 -25 -105 -33 -155 -5 -30 -20 -118 -35 -195 -15
-77 -30 -158 -33 -180 -3 -22 -9 -45 -14 -51 -6 -7 -9 -16 -8 -20 4 -13 -11
-102 -26 -164 -8 -30 -21 -98 -30 -150 -9 -52 -23 -129 -32 -170 -9 -41 -19
-95 -24 -120 -4 -25 -13 -67 -19 -95 -6 -27 -15 -75 -20 -106 -5 -31 -14 -79
-21 -105 -6 -27 -17 -83 -24 -124 -8 -41 -25 -130 -39 -198 -27 -132 -25 -152
15 -188 28 -25 109 -64 132 -64 9 0 18 -4 22 -9 3 -6 13 -9 23 -9 16 0 389
-53 502 -73 30 -5 86 -13 124 -19 38 -5 121 -19 185 -30 64 -10 181 -29 261
-41 80 -11 186 -27 235 -36 217 -35 274 -45 335 -53 36 -5 92 -14 125 -21 82
-15 77 -14 373 -55 l263 -36 35 27 c96 73 110 109 144 365 7 47 18 110 25 140
8 30 25 132 39 225 14 94 33 208 41 255 8 47 22 132 30 190 9 58 20 125 26
150 5 25 20 115 34 200 14 85 32 191 40 235 8 44 19 109 25 145 5 36 21 133
35 215 41 236 42 240 32 266 -38 99 -37 98 -91 108 -49 10 -288 47 -371 57
-22 2 -96 13 -165 24 -295 46 -389 59 -455 65 -38 4 -73 9 -77 11 -4 3 -69 14
-145 24 -76 11 -165 24 -198 29 -33 6 -82 13 -110 16 -27 3 -86 12 -130 20
-44 7 -136 21 -205 30 -69 9 -138 20 -155 25 -16 5 -57 11 -90 14 -33 3 -105
12 -160 21 -124 21 -253 28 -280 16z m1237 -912 c107 -27 152 -50 216 -113 63
-60 82 -93 82 -139 0 -42 -16 -75 -55 -111 -24 -22 -35 -26 -62 -21 -54 10
-132 56 -171 100 -65 74 -121 89 -204 56 -23 -9 -28 -17 -28 -45 0 -64 50
-102 238 -179 150 -62 262 -196 262 -314 0 -139 -95 -254 -256 -309 -78 -27
-249 -23 -359 8 -114 32 -156 53 -228 118 -92 83 -129 184 -91 249 21 35 27
38 92 47 l48 6 84 -77 c109 -99 181 -135 270 -135 36 0 70 4 77 8 19 12 41 85
33 107 -14 37 -56 65 -170 115 -267 118 -349 208 -338 368 9 117 81 209 196
250 74 27 89 29 195 31 61 1 114 -6 169 -20z"/>
<path d="M632 2633 c-14 -27 -106 -319 -107 -338 0 -5 -4 -16 -8 -22 -5 -7 -6
-13 -3 -13 3 0 -1 -17 -9 -37 -13 -35 -69 -219 -117 -388 -11 -38 -33 -113
-49 -165 -42 -137 -199 -685 -235 -820 -49 -185 -54 -204 -49 -208 2 -2 7 9
11 24 4 16 10 34 14 39 11 14 60 166 60 185 0 9 9 33 20 55 11 22 20 48 20 58
0 10 8 39 19 65 30 74 111 335 111 357 0 11 7 28 15 38 7 11 17 38 20 60 4 23
10 47 14 52 4 6 15 35 25 65 9 30 41 130 71 223 30 92 55 176 55 187 0 11 4
28 9 38 23 42 41 86 41 101 0 37 101 323 123 346 l22 24 175 -28 c96 -16 193
-31 215 -34 22 -4 121 -20 220 -36 99 -16 200 -33 225 -36 25 -3 52 -8 60 -10
8 -3 47 -9 85 -15 39 -5 81 -12 95 -14 30 -6 322 -53 365 -59 17 -3 89 -14
160 -26 284 -47 421 -69 435 -69 12 -1 121 -20 199 -36 9 -2 28 -8 42 -14 27
-11 27 -11 14 -64 -13 -55 -34 -132 -87 -321 -17 -62 -36 -134 -43 -162 -7
-27 -23 -86 -35 -130 -12 -44 -30 -114 -40 -155 -10 -41 -30 -115 -44 -165
-13 -49 -30 -119 -37 -155 -6 -36 -16 -73 -21 -83 -11 -22 1 -45 13 -26 9 15
34 90 69 209 12 41 34 118 50 170 55 182 80 266 114 385 19 66 41 140 49 165
8 25 22 74 32 110 9 36 21 74 25 85 10 23 50 160 50 169 0 23 -81 42 -371 91
-178 30 -376 63 -439 74 -63 11 -133 22 -155 25 -22 4 -47 8 -55 11 -8 2 -39
6 -68 9 -30 3 -57 8 -61 10 -3 2 -27 7 -51 11 -98 14 -231 36 -345 55 -66 12
-203 34 -305 51 -102 16 -191 31 -198 34 -7 3 -61 12 -120 20 -132 20 -160 24
-192 30 -82 15 -89 15 -98 -2z"/>
<path d="M3344 2173 c-14 -23 -47 -135 -118 -403 -8 -28 -24 -94 -75 -300 -28
-113 -56 -221 -61 -240 -47 -164 -62 -233 -65 -280 -3 -53 -2 -54 11 -25 7 17
13 35 14 42 0 7 14 54 30 105 17 51 30 102 30 113 0 12 4 25 8 30 5 6 21 55
37 110 15 55 36 125 46 155 10 30 48 159 84 285 37 127 71 242 75 257 5 15 21
43 36 63 24 32 30 35 63 30 20 -3 68 -10 106 -15 39 -5 77 -11 85 -14 8 -3 33
-8 55 -10 80 -11 171 -24 230 -34 33 -6 78 -13 100 -16 22 -3 67 -10 100 -15
241 -38 351 -55 500 -76 175 -25 263 -39 350 -55 28 -5 88 -14 135 -20 86 -10
127 -16 350 -51 69 -10 152 -22 185 -25 33 -4 74 -12 92 -20 27 -11 32 -19 39
-59 3 -26 4 -73 1 -104 -3 -31 -1 -65 3 -76 7 -16 9 -17 9 -3 1 9 15 50 31 91
31 79 37 116 20 146 -13 26 -25 29 -210 58 -91 14 -185 29 -210 33 -60 11
-291 49 -360 59 -101 15 -254 41 -325 56 -38 8 -115 21 -170 30 -55 8 -154 24
-220 35 -66 11 -163 27 -215 35 -52 9 -102 18 -111 21 -9 2 -72 13 -140 23
-68 11 -205 33 -304 50 -210 36 -227 37 -241 14z"/>
<path d="M1450 1725 c-56 -12 -175 -59 -190 -75 -3 -3 -26 -23 -53 -44 -59
-48 -132 -144 -164 -216 -14 -30 -29 -64 -34 -75 -17 -38 -37 -150 -38 -217
-2 -53 4 -83 30 -149 55 -141 165 -228 330 -260 56 -10 81 -10 165 4 105 18
134 15 173 -15 24 -18 89 -23 125 -9 13 5 26 33 42 92 26 90 58 198 80 267 8
23 14 60 14 81 0 66 -21 75 -263 116 -110 19 -112 18 -153 -47 -43 -67 -27
-97 64 -118 65 -15 86 -34 77 -69 -11 -45 -64 -89 -130 -106 -74 -19 -89 -19
-156 1 -67 20 -132 81 -148 139 -47 168 63 421 214 491 70 33 164 33 225 0 43
-23 58 -44 101 -138 15 -34 55 -48 133 -48 85 0 90 5 84 82 -7 82 -41 149
-107 211 -59 56 -114 82 -209 102 -82 18 -127 18 -212 0z"/>
<path d="M6166 1698 c-19 -17 -29 -43 -41 -100 -17 -89 -19 -128 -5 -128 6 0
10 15 10 33 0 35 8 51 57 118 56 75 49 72 127 65 39 -4 80 -10 91 -13 14 -3
17 -2 10 5 -8 9 -179 42 -214 42 -6 0 -21 -10 -35 -22z"/>
<path d="M4280 1234 c-28 -19 -77 -76 -133 -155 -21 -30 -75 -106 -120 -169
-69 -96 -219 -309 -277 -394 -8 -11 -31 -44 -52 -73 -45 -62 -47 -85 -10 -120
25 -24 32 -25 97 -20 l70 6 53 60 c79 89 109 105 185 96 115 -12 215 -41 237
-66 29 -33 50 -83 50 -119 0 -45 54 -100 105 -107 55 -7 135 29 135 61 -1 25
-13 148 -35 346 -8 80 -26 243 -39 363 -25 226 -32 251 -80 282 -37 24 -155
30 -186 9z m39 -368 c13 -15 32 -171 24 -191 -7 -19 -71 -45 -111 -45 -41 1
-63 13 -81 48 -10 20 -8 30 18 75 39 68 95 122 132 126 4 1 12 -5 18 -13z"/>
<path d="M8682 1225 c0 -16 2 -22 5 -12 2 9 2 23 0 30 -3 6 -5 -1 -5 -18z"/>
<path d="M2678 894 c-5 -4 -8 -19 -8 -33 1 -23 2 -24 11 -8 11 19 9 53 -3 41z"/>
<path d="M2990 844 c0 -8 5 -12 10 -9 6 3 10 10 10 16 0 5 -4 9 -10 9 -5 0
-10 -7 -10 -16z"/>
<path d="M6702 825 c-16 -14 -38 -41 -47 -62 -15 -31 -195 -728 -195 -754 0
-5 53 -9 118 -9 l119 0 12 58 c19 83 44 135 75 151 25 14 28 13 44 -10 18 -25
30 -71 39 -151 l5 -48 203 0 203 0 23 38 c13 20 32 45 42 54 17 16 21 16 43 1
19 -12 24 -24 24 -54 l0 -39 134 0 135 0 16 78 c9 42 25 111 35 152 69 281 77
341 53 402 -19 48 -49 63 -143 73 -123 13 -175 -19 -259 -160 -23 -38 -66
-110 -96 -158 -30 -48 -55 -91 -55 -96 0 -12 -74 -79 -90 -81 -68 -9 -72 1
-94 225 -27 279 -41 332 -99 369 -19 13 -163 45 -204 46 -6 0 -25 -11 -41 -25z"/>
<path d="M37 616 c-3 -8 -2 -18 3 -21 13 -8 20 9 11 24 -6 10 -10 9 -14 -3z"/>
<path d="M20 555 c0 -8 2 -15 4 -15 2 0 6 7 10 15 3 8 1 15 -4 15 -6 0 -10 -7
-10 -15z"/>
<path d="M1 474 c0 -11 3 -14 6 -6 3 7 2 16 -1 19 -3 4 -6 -2 -5 -13z"/>
<path d="M9880 304 c-76 -34 -98 -78 -137 -277 l-5 -27 139 0 140 0 36 34 c19
18 50 36 67 39 30 7 344 -28 362 -39 17 -11 88 77 88 109 0 27 -27 87 -40 87
-3 0 -32 5 -65 10 -33 6 -107 17 -165 26 -58 8 -130 22 -161 29 -90 23 -218
28 -259 9z"/>
<path d="M7 223 c7 -2 19 -2 26 0 6 3 1 5 -13 5 -14 0 -19 -2 -13 -5z"/>
</g>
</svg>
